# Blender v3.1.2 OBJ File: ''
# www.blender.org
mtllib sphere.mtl
o Sphere
v 0.152316 0.959493 -0.237008
v 0.292293 0.841254 -0.454816
v 0.408589 0.654861 -0.635777
v 0.491784 0.415415 -0.765231
v 0.535138 0.142315 -0.832691
v 0.535138 -0.142315 -0.832691
v 0.491784 -0.415415 -0.765231
v 0.408589 -0.654861 -0.635777
v 0.292293 -0.841254 -0.454816
v 0.152316 -0.959493 -0.237009
v 0.256273 0.959493 -0.117036
v 0.491784 0.841254 -0.224590
v 0.687454 0.654861 -0.313950
v 0.827430 0.415415 -0.377875
v 0.900373 0.142315 -0.411187
v 0.900373 -0.142315 -0.411187
v 0.827430 -0.415415 -0.377875
v 0.687454 -0.654861 -0.313950
v 0.491784 -0.841254 -0.224590
v 0.256273 -0.959493 -0.117036
v 0.278865 0.959493 0.040095
v 0.535138 0.841254 0.076941
v 0.748057 0.654861 0.107554
v 0.900373 0.415415 0.129454
v 0.979747 0.142315 0.140866
v 0.979747 -0.142315 0.140866
v 0.900373 -0.415415 0.129454
v 0.748057 -0.654861 0.107554
v 0.535138 -0.841254 0.076941
v 0.278865 -0.959493 0.040095
v 0.212919 0.959493 0.184496
v 0.408589 0.841254 0.354044
v 0.571157 0.654861 0.494911
v 0.687454 0.415415 0.595682
v 0.748057 0.142315 0.648195
v 0.748057 -0.142315 0.648195
v 0.687454 -0.415415 0.595682
v 0.571158 -0.654861 0.494911
v 0.408589 -0.841254 0.354044
v 0.212919 -0.959493 0.184496
v 0.079373 0.959493 0.270321
v 0.152316 0.841254 0.518741
v 0.212919 0.654861 0.725136
v 0.256273 0.415415 0.872785
v 0.278865 0.142315 0.949727
v 0.278865 -0.142315 0.949727
v 0.256273 -0.415415 0.872785
v 0.212919 -0.654861 0.725137
v 0.152316 -0.841254 0.518741
v 0.079373 -0.959493 0.270321
v -0.079373 0.959493 0.270321
v -0.152316 0.841254 0.518741
v -0.212919 0.654861 0.725136
v -0.256273 0.415415 0.872786
v -0.278865 0.142315 0.949727
v -0.278865 -0.142315 0.949727
v -0.256273 -0.415415 0.872786
v -0.212919 -0.654861 0.725137
v -0.152316 -0.841254 0.518741
v -0.079373 -0.959493 0.270321
v -0.212919 0.959493 0.184496
v -0.408589 0.841254 0.354045
v -0.571157 0.654861 0.494911
v -0.687454 0.415415 0.595682
v -0.748057 0.142315 0.648195
v -0.748057 -0.142315 0.648195
v -0.687454 -0.415415 0.595682
v -0.571157 -0.654861 0.494911
v -0.408589 -0.841254 0.354045
v -0.212919 -0.959493 0.184496
v 0.000000 -1.000000 0.000000
v -0.000000 1.000000 0.000000
v -0.278865 0.959493 0.040095
v -0.535138 0.841254 0.076941
v -0.748057 0.654861 0.107555
v -0.900373 0.415415 0.129454
v -0.979746 0.142315 0.140867
v -0.979746 -0.142315 0.140867
v -0.900373 -0.415415 0.129454
v -0.748057 -0.654861 0.107555
v -0.535138 -0.841254 0.076941
v -0.278865 -0.959493 0.040095
v -0.256273 0.959493 -0.117036
v -0.491784 0.841254 -0.224590
v -0.687454 0.654861 -0.313949
v -0.827430 0.415415 -0.377874
v -0.900373 0.142315 -0.411186
v -0.900373 -0.142315 -0.411186
v -0.827430 -0.415415 -0.377874
v -0.687454 -0.654861 -0.313949
v -0.491784 -0.841254 -0.224590
v -0.256273 -0.959493 -0.117036
v -0.152316 0.959493 -0.237008
v -0.292293 0.841254 -0.454816
v -0.408589 0.654861 -0.635777
v -0.491784 0.415415 -0.765231
v -0.535138 0.142315 -0.832690
v -0.535138 -0.142315 -0.832690
v -0.491784 -0.415415 -0.765231
v -0.408589 -0.654861 -0.635777
v -0.292293 -0.841254 -0.454816
v -0.152316 -0.959493 -0.237008
v -0.000000 0.959493 -0.281732
v -0.000000 0.841254 -0.540641
v -0.000000 0.654861 -0.755749
v -0.000000 0.415415 -0.909631
v -0.000000 0.142315 -0.989821
v -0.000000 -0.142315 -0.989821
v -0.000000 -0.415415 -0.909631
v -0.000000 -0.654861 -0.755749
v -0.000000 -0.841254 -0.540641
v -0.000000 -0.959493 -0.281733
vt 0.727273 0.727273
vt 0.727273 0.818182
vt 0.636364 0.818182
vt 0.636364 0.727273
vt 0.727273 0.090909
vt 0.727273 0.181818
vt 0.636364 0.181818
vt 0.636364 0.090909
vt 0.727273 0.363636
vt 0.727273 0.454545
vt 0.636364 0.454545
vt 0.636364 0.363636
vt 0.727273 0.636364
vt 0.636364 0.636364
vt 0.681818 0.000000
vt 0.727273 0.909091
vt 0.681818 1.000000
vt 0.636364 0.909091
vt 0.727273 0.272727
vt 0.636364 0.272727
vt 0.727273 0.545455
vt 0.636364 0.545455
vt 0.545454 0.909091
vt 0.545455 0.818182
vt 0.545455 0.272727
vt 0.545455 0.181818
vt 0.545455 0.545455
vt 0.545455 0.454545
vt 0.545455 0.727273
vt 0.545454 0.090909
vt 0.545455 0.363636
vt 0.545455 0.636364
vt 0.590909 0.000000
vt 0.590909 1.000000
vt 0.454545 0.818182
vt 0.454545 0.727273
vt 0.454545 0.181818
vt 0.454545 0.090909
vt 0.454545 0.454545
vt 0.454545 0.363636
vt 0.454545 0.636364
vt 0.500000 0.000000
vt 0.500000 1.000000
vt 0.454545 0.909091
vt 0.454545 0.272727
vt 0.454545 0.545455
vt 0.363636 0.454545
vt 0.363636 0.363636
vt 0.363636 0.727273
vt 0.363636 0.636364
vt 0.409091 0.000000
vt 0.363636 0.090909
vt 0.409091 1.000000
vt 0.363636 0.909091
vt 0.363636 0.272727
vt 0.363636 0.545455
vt 0.363636 0.818182
vt 0.363636 0.181818
vt 0.318182 1.000000
vt 0.272727 0.909091
vt 0.272727 0.363636
vt 0.272727 0.272727
vt 0.272727 0.636364
vt 0.272727 0.545455
vt 0.272727 0.818182
vt 0.272727 0.181818
vt 0.272727 0.454545
vt 0.272727 0.727273
vt 0.272727 0.090909
vt 0.318182 0.000000
vt 0.181818 0.909091
vt 0.181818 0.818182
vt 0.181818 0.272727
vt 0.181818 0.181818
vt 0.181818 0.545455
vt 0.181818 0.454545
vt 0.181818 0.727273
vt 0.181818 0.090909
vt 0.181818 0.363636
vt 0.181818 0.636364
vt 0.227273 0.000000
vt 0.227273 1.000000
vt 0.090909 0.545455
vt 0.090909 0.454545
vt 0.090909 0.818182
vt 0.090909 0.727273
vt 0.090909 0.181818
vt 0.090909 0.090909
vt 0.090909 0.363636
vt 0.090909 0.636364
vt 0.136364 0.000000
vt 0.136364 1.000000
vt 0.090909 0.909091
vt 0.090909 0.272727
vt 0.000000 0.454545
vt 0.000000 0.363636
vt 0.000000 0.727273
vt 0.000000 0.636364
vt 0.045455 0.000000
vt 0.000000 0.090909
vt 0.045455 1.000000
vt 0.000000 0.909091
vt 0.000000 0.272727
vt 0.000000 0.545455
vt 0.000000 0.818182
vt 0.000000 0.181818
vt 0.954545 0.000000
vt 1.000000 0.090909
vt 0.909091 0.090909
vt 1.000000 0.909091
vt 0.954545 1.000000
vt 0.909091 0.909091
vt 1.000000 0.272727
vt 1.000000 0.363636
vt 0.909091 0.363636
vt 0.909091 0.272727
vt 1.000000 0.545455
vt 1.000000 0.636364
vt 0.909091 0.636364
vt 0.909091 0.545455
vt 1.000000 0.818182
vt 0.909091 0.818182
vt 1.000000 0.181818
vt 0.909091 0.181818
vt 1.000000 0.454545
vt 0.909091 0.454545
vt 1.000000 0.727273
vt 0.909091 0.727273
vt 0.818182 0.636364
vt 0.818182 0.545455
vt 0.818182 0.909091
vt 0.818182 0.818182
vt 0.818182 0.272727
vt 0.818182 0.181818
vt 0.818182 0.454545
vt 0.818182 0.727273
vt 0.818182 0.090909
vt 0.818182 0.363636
vt 0.863636 0.000000
vt 0.863636 1.000000
vt 0.772727 0.000000
vt 0.772727 1.000000
vn -0.0000 0.6424 -0.7663
vn -0.0000 0.8296 -0.5584
vn 0.3019 0.8296 -0.4697
vn 0.4143 0.6424 -0.6447
vn -0.0000 -0.9523 -0.3052
vn -0.0000 -0.8296 -0.5584
vn 0.3019 -0.8296 -0.4697
vn 0.1650 -0.9523 -0.2567
vn -0.0000 -0.4060 -0.9139
vn -0.0000 -0.1388 -0.9903
vn 0.5354 -0.1388 -0.8331
vn 0.4941 -0.4060 -0.7688
vn -0.0000 0.4060 -0.9139
vn 0.4941 0.4060 -0.7688
vn -0.0000 -1.0000 0.0000
vn -0.0000 0.9523 -0.3052
vn -0.0000 1.0000 -0.0000
vn 0.1650 0.9523 -0.2567
vn -0.0000 -0.6424 -0.7663
vn 0.4143 -0.6424 -0.6447
vn -0.0000 0.1388 -0.9903
vn 0.5354 0.1388 -0.8331
vn 0.2776 0.9523 -0.1268
vn 0.5079 0.8296 -0.2320
vn 0.6971 -0.6424 -0.3184
vn 0.5079 -0.8296 -0.2320
vn 0.9008 0.1388 -0.4114
vn 0.9008 -0.1388 -0.4114
vn 0.6971 0.6424 -0.3184
vn 0.2776 -0.9523 -0.1268
vn 0.8313 -0.4060 -0.3796
vn 0.8313 0.4060 -0.3796
vn 0.5527 0.8296 0.0795
vn 0.7585 0.6424 0.1091
vn 0.5527 -0.8296 0.0795
vn 0.3021 -0.9523 0.0434
vn 0.9802 -0.1388 0.1409
vn 0.9046 -0.4060 0.1301
vn 0.9046 0.4060 0.1301
vn 0.3021 0.9523 0.0434
vn 0.7585 -0.6424 0.1091
vn 0.9802 0.1388 0.1409
vn 0.7484 -0.1388 0.6485
vn 0.6906 -0.4060 0.5984
vn 0.5792 0.6424 0.5019
vn 0.6906 0.4060 0.5984
vn 0.2306 -0.9523 0.1998
vn 0.2306 0.9523 0.1998
vn 0.5792 -0.6424 0.5019
vn 0.7484 0.1388 0.6485
vn 0.4220 0.8296 0.3657
vn 0.4220 -0.8296 0.3657
vn 0.0860 0.9523 0.2928
vn 0.2575 -0.4060 0.8768
vn 0.2159 -0.6424 0.7353
vn 0.2575 0.4060 0.8768
vn 0.2790 0.1388 0.9502
vn 0.1573 0.8296 0.5358
vn 0.1573 -0.8296 0.5358
vn 0.2790 -0.1388 0.9502
vn 0.2159 0.6424 0.7353
vn 0.0860 -0.9523 0.2928
vn -0.0860 0.9523 0.2928
vn -0.1573 0.8296 0.5358
vn -0.2159 -0.6424 0.7353
vn -0.1573 -0.8296 0.5358
vn -0.2790 0.1388 0.9502
vn -0.2790 -0.1388 0.9502
vn -0.2159 0.6424 0.7353
vn -0.0860 -0.9523 0.2928
vn -0.2575 -0.4060 0.8768
vn -0.2575 0.4060 0.8768
vn -0.7484 0.1388 0.6485
vn -0.7484 -0.1388 0.6485
vn -0.4220 0.8296 0.3657
vn -0.5792 0.6424 0.5019
vn -0.4220 -0.8296 0.3657
vn -0.2306 -0.9523 0.1998
vn -0.6906 -0.4060 0.5984
vn -0.6906 0.4060 0.5984
vn -0.2306 0.9523 0.1998
vn -0.5792 -0.6424 0.5019
vn -0.9802 -0.1388 0.1409
vn -0.9046 -0.4060 0.1301
vn -0.7585 0.6424 0.1091
vn -0.9046 0.4060 0.1301
vn -0.3021 -0.9523 0.0434
vn -0.3021 0.9523 0.0434
vn -0.7585 -0.6424 0.1091
vn -0.9802 0.1388 0.1409
vn -0.5527 0.8296 0.0795
vn -0.5527 -0.8296 0.0795
vn -0.2776 -0.9523 -0.1268
vn -0.2776 0.9523 -0.1268
vn -0.8313 -0.4060 -0.3796
vn -0.6971 -0.6424 -0.3184
vn -0.8313 0.4060 -0.3796
vn -0.9008 0.1388 -0.4114
vn -0.5079 0.8296 -0.2320
vn -0.5079 -0.8296 -0.2320
vn -0.9008 -0.1388 -0.4114
vn -0.6971 0.6424 -0.3184
vn -0.4941 0.4060 -0.7688
vn -0.5354 0.1388 -0.8331
vn -0.1650 0.9523 -0.2567
vn -0.3019 0.8296 -0.4697
vn -0.4143 -0.6424 -0.6447
vn -0.3019 -0.8296 -0.4697
vn -0.5354 -0.1388 -0.8331
vn -0.4143 0.6424 -0.6447
vn -0.1650 -0.9523 -0.2567
vn -0.4941 -0.4060 -0.7688
usemtl Material.001
s 1
f 105/1/1 104/2/2 2/3/3 3/4/4
f 112/5/5 111/6/6 9/7/7 10/8/8
f 109/9/9 108/10/10 6/11/11 7/12/12
f 106/13/13 105/1/1 3/4/4 4/14/14
f 71/15/15 112/5/5 10/8/8
f 103/16/16 72/17/17 1/18/18
f 110/19/19 109/9/9 7/12/12 8/20/20
f 107/21/21 106/13/13 4/14/14 5/22/22
f 104/2/2 103/16/16 1/18/18 2/3/3
f 111/6/6 110/19/19 8/20/20 9/7/7
f 108/10/10 107/21/21 5/22/22 6/11/11
f 2/3/3 1/18/18 11/23/23 12/24/24
f 9/7/7 8/20/20 18/25/25 19/26/26
f 6/11/11 5/22/22 15/27/27 16/28/28
f 3/4/4 2/3/3 12/24/24 13/29/29
f 10/8/8 9/7/7 19/26/26 20/30/30
f 7/12/12 6/11/11 16/28/28 17/31/31
f 4/14/14 3/4/4 13/29/29 14/32/32
f 71/33/15 10/8/8 20/30/30
f 1/18/18 72/34/17 11/23/23
f 8/20/20 7/12/12 17/31/31 18/25/25
f 5/22/22 4/14/14 14/32/32 15/27/27
f 13/29/29 12/24/24 22/35/33 23/36/34
f 20/30/30 19/26/26 29/37/35 30/38/36
f 17/31/31 16/28/28 26/39/37 27/40/38
f 14/32/32 13/29/29 23/36/34 24/41/39
f 71/42/15 20/30/30 30/38/36
f 11/23/23 72/43/17 21/44/40
f 18/25/25 17/31/31 27/40/38 28/45/41
f 15/27/27 14/32/32 24/41/39 25/46/42
f 12/24/24 11/23/23 21/44/40 22/35/33
f 19/26/26 18/25/25 28/45/41 29/37/35
f 16/28/28 15/27/27 25/46/42 26/39/37
f 27/40/38 26/39/37 36/47/43 37/48/44
f 24/41/39 23/36/34 33/49/45 34/50/46
f 71/51/15 30/38/36 40/52/47
f 21/44/40 72/53/17 31/54/48
f 28/45/41 27/40/38 37/48/44 38/55/49
f 25/46/42 24/41/39 34/50/46 35/56/50
f 22/35/33 21/44/40 31/54/48 32/57/51
f 29/37/35 28/45/41 38/55/49 39/58/52
f 26/39/37 25/46/42 35/56/50 36/47/43
f 23/36/34 22/35/33 32/57/51 33/49/45
f 30/38/36 29/37/35 39/58/52 40/52/47
f 31/54/48 72/59/17 41/60/53
f 38/55/49 37/48/44 47/61/54 48/62/55
f 35/56/50 34/50/46 44/63/56 45/64/57
f 32/57/51 31/54/48 41/60/53 42/65/58
f 39/58/52 38/55/49 48/62/55 49/66/59
f 36/47/43 35/56/50 45/64/57 46/67/60
f 33/49/45 32/57/51 42/65/58 43/68/61
f 40/52/47 39/58/52 49/66/59 50/69/62
f 37/48/44 36/47/43 46/67/60 47/61/54
f 34/50/46 33/49/45 43/68/61 44/63/56
f 71/70/15 40/52/47 50/69/62
f 42/65/58 41/60/53 51/71/63 52/72/64
f 49/66/59 48/62/55 58/73/65 59/74/66
f 46/67/60 45/64/57 55/75/67 56/76/68
f 43/68/61 42/65/58 52/72/64 53/77/69
f 50/69/62 49/66/59 59/74/66 60/78/70
f 47/61/54 46/67/60 56/76/68 57/79/71
f 44/63/56 43/68/61 53/77/69 54/80/72
f 71/81/15 50/69/62 60/78/70
f 41/60/53 72/82/17 51/71/63
f 48/62/55 47/61/54 57/79/71 58/73/65
f 45/64/57 44/63/56 54/80/72 55/75/67
f 56/76/68 55/75/67 65/83/73 66/84/74
f 53/77/69 52/72/64 62/85/75 63/86/76
f 60/78/70 59/74/66 69/87/77 70/88/78
f 57/79/71 56/76/68 66/84/74 67/89/79
f 54/80/72 53/77/69 63/86/76 64/90/80
f 71/91/15 60/78/70 70/88/78
f 51/71/63 72/92/17 61/93/81
f 58/73/65 57/79/71 67/89/79 68/94/82
f 55/75/67 54/80/72 64/90/80 65/83/73
f 52/72/64 51/71/63 61/93/81 62/85/75
f 59/74/66 58/73/65 68/94/82 69/87/77
f 67/89/79 66/84/74 78/95/83 79/96/84
f 64/90/80 63/86/76 75/97/85 76/98/86
f 71/99/15 70/88/78 82/100/87
f 61/93/81 72/101/17 73/102/88
f 68/94/82 67/89/79 79/96/84 80/103/89
f 65/83/73 64/90/80 76/98/86 77/104/90
f 62/85/75 61/93/81 73/102/88 74/105/91
f 69/87/77 68/94/82 80/103/89 81/106/92
f 66/84/74 65/83/73 77/104/90 78/95/83
f 63/86/76 62/85/75 74/105/91 75/97/85
f 70/88/78 69/87/77 81/106/92 82/100/87
f 71/107/15 82/108/87 92/109/93
f 73/110/88 72/111/17 83/112/94
f 80/113/89 79/114/84 89/115/95 90/116/96
f 77/117/90 76/118/86 86/119/97 87/120/98
f 74/121/91 73/110/88 83/112/94 84/122/99
f 81/123/92 80/113/89 90/116/96 91/124/100
f 78/125/83 77/117/90 87/120/98 88/126/101
f 75/127/85 74/121/91 84/122/99 85/128/102
f 82/108/87 81/123/92 91/124/100 92/109/93
f 79/114/84 78/125/83 88/126/101 89/115/95
f 76/118/86 75/127/85 85/128/102 86/119/97
f 87/120/98 86/119/97 96/129/103 97/130/104
f 84/122/99 83/112/94 93/131/105 94/132/106
f 91/124/100 90/116/96 100/133/107 101/134/108
f 88/126/101 87/120/98 97/130/104 98/135/109
f 85/128/102 84/122/99 94/132/106 95/136/110
f 92/109/93 91/124/100 101/134/108 102/137/111
f 89/115/95 88/126/101 98/135/109 99/138/112
f 86/119/97 85/128/102 95/136/110 96/129/103
f 71/139/15 92/109/93 102/137/111
f 83/112/94 72/140/17 93/131/105
f 90/116/96 89/115/95 99/138/112 100/133/107
f 98/135/109 97/130/104 107/21/21 108/10/10
f 95/136/110 94/132/106 104/2/2 105/1/1
f 102/137/111 101/134/108 111/6/6 112/5/5
f 99/138/112 98/135/109 108/10/10 109/9/9
f 96/129/103 95/136/110 105/1/1 106/13/13
f 71/141/15 102/137/111 112/5/5
f 93/131/105 72/142/17 103/16/16
f 100/133/107 99/138/112 109/9/9 110/19/19
f 97/130/104 96/129/103 106/13/13 107/21/21
f 94/132/106 93/131/105 103/16/16 104/2/2
f 101/134/108 100/133/107 110/19/19 111/6/6
